<svg width="80" height="59" viewBox="0 0 80 59" fill="none" xmlns="http://www.w3.org/2000/svg">
<g clip-path="url(#clip0_109_495)">
<path fill-rule="evenodd" clip-rule="evenodd" d="M0.301147 19.1797H70.0235V58.9625H0.301147V19.1797Z" fill="#FDB846"/>
<mask id="mask0_109_495" style="mask-type:luminance" maskUnits="userSpaceOnUse" x="0" y="29" width="81" height="30">
<path d="M0.301147 29.0317H80.0376V59H0.301147V29.0317Z" fill="white"/>
</mask>
<g mask="url(#mask0_109_495)">
<path d="M23.7929 50.6838C23.68 50.6089 23.4917 50.3092 23.3788 50.2343C23.1529 50.047 22.9647 50.047 22.7011 50.2343C22.4753 50.4216 22.3623 50.5714 22.1364 50.7587C21.9106 50.9835 21.7976 51.1333 21.5717 51.3955C21.4588 51.5079 21.3082 51.6952 21.1576 51.7327C20.8188 51.8451 20.6306 51.8825 20.5176 51.7327C19.6517 50.3092 18.5223 48.5111 17.3176 47.3498C16.2635 46.3384 15.0964 45.5517 13.6282 45.1771C13.0635 45.0648 12.5741 45.0273 12.047 44.9898C11.8964 44.9524 11.7459 45.0273 11.6706 45.1771C11.3694 45.7765 11.2941 46.3384 11.2941 46.9752C11.2941 47.687 11.2564 48.3987 11.2941 49.1105C11.3317 49.8597 11.2188 50.6089 10.88 51.2457C9.71291 53.306 8.16938 54.767 5.83527 55.3663C5.15762 55.5536 4.32938 55.5162 3.72703 55.4413C2.71056 55.3663 1.39291 54.8794 0.301147 53.9054C0.301147 53.3809 0.338795 30.1555 0.338795 30.0806C0.376442 30.0806 0.376442 30.1181 0.414089 30.1181C1.76938 30.7924 3.19997 31.167 4.70585 31.4292C6.58821 31.7663 8.50821 31.9162 10.4282 31.8413C10.7294 31.8413 11.2941 31.8038 11.2941 31.8038C11.2941 31.8038 11.5576 32.1035 11.9341 32.3657C12.4235 32.7029 13.44 32.8902 14.2682 32.8527C14.9835 32.8152 15.6988 32.7403 16.4141 32.6654C18.3341 32.553 18.2964 32.7403 19.6894 33.3397C20.2917 33.6019 21.12 33.8267 21.647 34.0514C22.7011 34.426 23.4541 34.6882 24.5459 35.1378C25.3741 35.5124 26.3529 36.1492 26.9176 37.0108C27.1811 37.3854 27.3694 37.9098 27.52 38.4343C28.047 37.76 28.7623 37.4978 29.5529 37.4978C30.0047 37.4978 30.2306 37.4978 30.72 37.5352C30.7576 37.5352 31.2094 37.6476 31.247 37.6476C31.6611 37.76 31.887 38.1721 31.6235 38.7714C31.4353 39.146 31.1717 39.4832 30.9835 39.8203C30.9082 39.9702 30.7576 40.3073 30.7576 40.4946C30.72 40.9067 31.247 41.3936 31.6611 41.2813C31.8494 41.2438 32.1882 41.094 32.3388 40.9816C32.4894 40.9067 32.7153 40.7568 32.8659 40.6819C33.167 40.5321 33.2047 40.607 33.5059 40.7943C34.3717 41.3562 34.9364 41.9181 35.1623 42.9295C35.3129 43.6038 35.2753 44.2406 35.1247 44.9149C34.9364 45.814 34.7106 46.6381 34.5223 47.5371C34.447 47.9117 34.4094 48.3987 34.4094 48.7733C34.4094 49.073 34.4094 49.1105 34.2211 49.1479C33.807 49.2228 33.5435 48.9606 33.28 48.6609C33.1294 48.4736 32.9788 48.3613 32.8282 48.1365C32.527 48.5111 32.1882 48.8108 32.1506 49.2603C32.1506 49.4102 32.0753 49.7098 32.1882 49.7848C32.3764 50.0095 32.8282 50.1968 33.0541 50.3092C33.28 50.4216 33.5811 50.4965 33.807 50.6089C34.4094 50.9086 34.7106 51.3581 34.5976 52.1822C34.56 52.3321 34.4847 52.7067 34.3717 52.7816C34.2964 52.8565 34.1082 52.7067 33.9576 52.6692C33.5059 52.5568 33.2047 52.5943 32.9035 52.894C32.64 53.1562 32.4517 53.3435 32.2259 53.6432C32.0376 53.8679 31.8117 54.3549 31.6235 54.6171C31.5859 54.6171 31.5859 54.2425 31.5859 54.0178C31.5859 53.6806 31.4353 53.4184 31.0964 53.3809C30.7953 53.3435 30.4564 53.3435 30.1553 53.3809C29.9294 53.3809 29.7411 53.3435 29.4776 53.3435C29.5153 53.2311 29.6659 52.894 29.6659 52.8565C29.7411 52.6317 29.7411 52.407 29.7411 52.1822C29.7035 51.6203 29.5529 51.4705 29.1388 51.1708C28.8 50.946 28.3482 50.7962 28.0094 50.6089C27.6706 50.3841 27.3317 50.1219 26.9929 49.8597C26.8047 49.7098 26.9176 49.5225 26.9553 49.2603C27.0682 48.5486 26.88 47.7244 26.767 47.0502C26.6541 46.4133 26.5035 45.7765 26.6541 45.1397C26.7294 44.7651 27.0306 44.5403 27.1811 44.1657C27.2188 44.0908 27.2941 43.9784 27.3317 43.9035C26.9553 43.7911 26.3906 43.6787 26.0141 43.5663C24.6211 43.1168 23.4541 42.3676 22.2494 41.5435C21.2706 40.8692 20.3294 40.1575 19.3882 39.4832C17.7317 38.2844 15.887 37.4978 13.8541 37.1606C12.3482 36.8984 10.8423 36.5613 9.2988 36.6362C7.60468 36.7111 5.87291 37.1232 4.40468 37.9848C3.35056 38.5467 3.01174 39.2959 2.89879 40.2698C2.78585 41.1689 2.8235 42.0305 3.19997 42.8921C3.27526 43.0794 3.38821 43.3041 3.61409 43.3041C4.36703 43.2667 5.27056 43.2667 6.0235 43.3041C7.52938 43.3416 9.07291 43.3041 10.5788 43.379C12.7247 43.5289 14.72 43.866 16.6776 44.7651C17.9576 45.3644 19.2376 46.3759 20.0659 47.4248C20.1411 47.4997 20.4047 47.4622 20.5176 47.4622C21.007 47.4997 21.1953 47.6495 21.6094 47.9117C21.9482 48.1365 22.2117 48.4362 22.5882 48.6609C23.1529 48.9981 23.68 49.073 24.0188 48.5111C24.1317 48.3613 24.2447 48.0616 24.3576 48.0241C24.7717 47.9867 24.9976 48.0241 25.1859 48.2114C25.487 48.5111 25.7506 48.7733 25.9764 49.1105C26.2023 49.4476 26.1647 49.8597 26.0141 50.2343C25.8635 50.6089 25.8259 50.7213 25.6376 51.0959C25.487 51.3955 24.96 52.3321 24.8847 52.3321C24.5459 52.3321 24.2447 52.3695 23.8682 52.3321C23.5294 52.2946 23.2659 52.0324 23.1906 51.6952C23.0776 51.3581 23.2282 51.1333 23.4917 50.9086C23.6047 50.7962 23.68 50.7587 23.7929 50.6838ZM75.407 51.1708C75.4823 50.6089 75.3317 49.6349 75.1059 49.073C74.6917 48.3238 74.127 47.7244 73.4117 47.2749C72.6964 46.8628 71.9811 46.4882 71.2659 46.1136C70.3623 45.6641 69.4212 45.2521 68.7811 44.4279C68.7058 44.5028 68.6306 44.5778 68.5929 44.6527C67.8023 45.7016 67.3506 46.7879 67.2376 48.0616C67.2 48.586 67.2376 50.0844 67.1623 50.1594C65.6188 52.0324 63.6988 53.3435 60.3106 53.8305C60.047 53.9054 57.7129 52.407 56.7717 51.6578C55.8306 50.9086 55.2282 49.8597 54.927 48.6609C54.7388 47.9492 54.8141 47.3498 54.9647 46.6755C55.1153 46.0013 55.6047 45.4768 56.207 45.1022C56.6588 44.84 57.1482 44.6527 57.6 44.3905C57.9388 44.2032 58.24 43.9035 58.5788 43.7162C58.6541 43.6787 60.8376 43.5289 61.967 43.4165C63.7364 43.2667 65.6564 43.1917 67.4259 43.2292C69.647 43.2667 71.6047 43.379 73.6753 44.1282C75.6329 44.84 76.5364 45.6267 77.8164 46.8254C77.8917 46.9378 78.6823 47.8743 78.6447 48.0241C78.5317 48.5111 78.607 48.9981 78.72 49.4476C78.8706 49.8971 79.0588 50.2343 79.1717 50.6838C79.36 51.6203 79.0588 52.2946 78.3435 52.6317C78.2306 52.6692 78.0423 52.7067 77.6659 52.6317C77.1764 52.407 76.9506 52.2946 76.5741 51.9949C76.2729 51.6578 76.0094 51.5079 75.407 51.1708ZM53.6094 37.76C53.6847 37.6476 53.7223 37.5727 53.7223 37.5352C54.5882 36.1492 55.4917 34.7632 56.3576 33.3771C56.3953 33.3022 56.5082 33.1898 56.5835 33.1898C57.2235 33.04 57.8635 32.8902 58.4659 32.7778C59.2564 32.6279 60.0094 32.6654 60.687 33.1149C60.7247 33.1524 60.8753 33.1149 60.9506 33.0775C61.9294 32.553 64.3388 31.1295 64.3388 31.0921C64.6776 31.2044 64.4894 31.1295 64.8659 31.2794C65.5059 31.3543 65.92 31.3168 66.4094 31.0921C66.8988 30.8673 67.3882 30.6051 67.8776 30.3428C68.367 30.1181 68.8941 29.8933 69.4588 29.8184C70.3247 29.706 71.1529 29.8933 71.9059 30.3054C72.96 30.9048 73.6376 31.9162 74.0517 33.0025C74.3906 33.939 74.4282 34.913 74.4282 35.887C74.4282 35.9619 73.2988 36.4863 71.9059 36.7486C70.5506 36.9733 69.2329 36.8984 67.84 36.8984C66.447 36.8609 65.0917 36.8984 63.6988 36.9733C62.3059 37.0857 60.9882 37.4978 59.8964 38.3968C59.5953 38.6216 59.2188 38.8838 58.9553 39.2584C58.767 39.5581 58.6541 39.7079 58.4282 39.8952C58.0141 40.1949 57.5623 40.1575 57.1859 39.7828C56.96 39.5581 56.7717 39.2959 56.5835 39.0336C56.32 38.659 56.0941 38.2844 55.7929 37.9473C55.2659 37.3479 54.7011 37.2355 53.9482 37.5352C53.9106 37.6476 53.7976 37.6851 53.6094 37.76ZM47.6611 50.7962C47.1341 49.8971 46.6823 49.1479 46.2306 48.2489C45.8917 47.5746 45.7788 46.7505 45.967 46.0013C45.967 45.9263 46.1929 45.739 46.2682 45.7016C46.7953 45.2146 47.0211 44.6902 47.2847 44.0159C47.5859 43.1917 47.8117 42.2178 48.1129 41.3936C48.3011 40.8692 48.6023 40.4197 49.0541 40.0451C49.5435 39.633 50.0329 39.5955 50.7106 39.5581C50.8235 39.5581 50.9364 39.5581 51.0117 39.633C51.6894 40.1575 51.9906 40.7194 51.9529 41.5809C51.9529 41.8057 51.9906 42.1803 51.9529 42.3676C51.6894 42.4051 51.4635 42.4051 51.2 42.5549C49.9953 43.1543 49.3929 43.8286 49.167 45.1022C49.0164 45.8889 48.9788 46.6006 48.8659 47.4248C48.7529 48.3613 48.6776 49.3352 48.0753 50.1219C47.9623 50.2717 47.8117 50.5714 47.6611 50.7962Z" fill="black" stroke="black" stroke-miterlimit="10"/>
</g>
<path d="M5.12008 6.03111H2.4095L1.65656 7.79175H0.865967L3.80244 1.23619L6.66361 7.79175H5.87303L5.12008 6.03111ZM4.85655 5.39429L3.76479 2.88444L2.67303 5.39429H4.85655ZM10.8048 7.79175L11.8589 1.19873L14.306 6.48064L16.8283 1.19873L17.8448 7.79175H17.1295L16.4895 3.44635L14.306 8.05397L12.1601 3.44635L11.5201 7.79175H10.8048ZM26.1648 2.21016H23.5671V4.04571H26.0895V4.68254H23.5671V7.11746H26.1648V7.75429H22.8519V1.57333H26.1648V2.21016ZM32.0001 1.57333C32.4142 1.57333 33.0918 1.61079 33.5436 1.91048C33.9577 2.13524 34.2589 2.62222 34.2589 3.29651C34.2589 4.23302 33.6189 4.94476 32.6401 5.01968L34.673 7.79175H33.8071L31.8495 5.05714H31.6613V7.79175H30.946V1.57333H32.0001ZM31.6989 4.45778H32.1507C33.0166 4.45778 33.5436 4.04571 33.5436 3.33397C33.5436 2.99683 33.4307 2.65968 33.0166 2.43492C32.753 2.24762 32.4518 2.21016 32.113 2.21016H31.6989V4.45778ZM40.0566 1.57333V7.82921H39.3413V1.57333H40.0566ZM50.1083 2.92191C49.9201 2.7346 49.5813 2.50984 49.2801 2.36C48.9413 2.21016 48.5648 2.09778 48.1883 2.09778C46.7201 2.09778 45.6283 3.25905 45.6283 4.68254C45.6283 6.36825 47.0213 7.22984 48.226 7.22984C48.6401 7.22984 49.0919 7.11746 49.4307 6.93016C49.8071 6.74286 50.0707 6.5181 50.1836 6.40571V7.2673C49.6192 7.65552 48.9498 7.86449 48.2636 7.86667C46.3813 7.86667 44.9507 6.48064 44.9507 4.64508C44.9507 2.77206 46.3813 1.38603 48.3013 1.38603C48.6777 1.38603 49.4307 1.42349 50.1836 1.9854V2.92191H50.1083ZM58.466 6.03111H55.7554L55.0024 7.79175H54.2118L57.1483 1.23619L60.0095 7.79175H59.2189L58.466 6.03111ZM58.2024 5.39429L57.1107 2.88444L56.0189 5.39429H58.2024ZM64.4518 7.79175V1.31111L69.4589 6.40571V1.57333H70.1742V8.09143L65.1295 2.99683V7.82921H64.4518V7.79175Z" fill="white"/>
<path d="M4.3671 12.1746C4.10357 11.9873 3.65181 11.6876 3.1624 11.6876C3.04946 11.6876 2.86122 11.7251 2.74828 11.8C2.67298 11.8749 2.63534 11.9498 2.63534 12.0622C2.63534 12.2121 2.63534 12.3244 2.97416 12.3994L3.65181 12.5492C4.17887 12.6616 4.48004 12.8863 4.66828 13.0736C5.04475 13.4482 5.12004 13.9352 5.12004 14.3098C5.12004 14.8343 4.96946 15.3587 4.59298 15.8082C4.25416 16.1828 3.61416 16.5949 2.5224 16.5949C1.61887 16.5949 1.01651 16.3327 0.527102 16.1079L0.338867 16.033L0.978867 14.2724L1.20475 14.4597C1.43063 14.647 1.8824 14.9092 2.40946 14.9092C2.71063 14.9092 2.82357 14.8343 2.86122 14.7968C2.97416 14.7219 2.97416 14.6095 2.97416 14.4971C2.97416 14.4222 2.97416 14.3473 2.89887 14.2724C2.82357 14.1974 2.71063 14.16 2.48475 14.1225L1.95769 14.0101C1.61887 13.9352 1.2424 13.8228 0.94122 13.4857C0.640044 13.1486 0.527102 12.774 0.527102 12.3244C0.527102 11.7251 0.715338 11.2381 1.09181 10.826C1.54357 10.339 2.22122 10.0019 3.12475 10.0019C3.57651 10.0019 4.21651 10.0768 4.93181 10.5638L4.3671 12.1746ZM6.70122 16.4825V10.1892H8.77181V12.3244H10.0895V10.1892H12.16V16.4825H10.0895V14.3098H8.77181V16.4825H6.70122ZM15.8118 15.6959L15.6612 16.4825H13.4024L15.4353 10.1892H17.8071L19.8777 16.4825H17.6189L17.4306 15.6959H15.8118ZM16.6777 12.287H16.6024C16.6024 12.5492 16.5647 12.774 16.4895 12.9987L16.1883 14.1974H17.0542L16.7906 12.9987C16.753 12.7365 16.7153 12.5117 16.6777 12.287ZM21.1577 16.4825V10.1892H23.1906V12.1371C23.1906 12.4368 23.1906 12.6616 23.153 12.9238H23.1906C23.3036 12.5492 23.3789 12.4368 23.4918 12.212L24.5083 10.1892H26.8047L24.96 13.2609L26.993 16.4825H24.5083L23.4165 14.4597C23.3036 14.2724 23.2283 14.0476 23.1153 13.8603H23.0777C23.1153 14.0851 23.1153 14.2349 23.1153 14.4597V16.4825H21.1577ZM28.3483 16.4825V10.1892H32.3012V11.9124H30.4942V12.5117H32.1506V14.16H30.4942V14.7594H32.3765V16.4825H28.3483ZM37.7224 12.1746C37.4589 11.9873 37.0071 11.6876 36.5177 11.6876C36.4047 11.6876 36.2165 11.7251 36.1036 11.8C36.0283 11.8749 35.9906 11.9498 35.9906 12.0247C35.9906 12.1746 35.9906 12.287 36.3295 12.3619L37.0071 12.5117C37.5342 12.6241 37.8353 12.8489 38.0236 13.0362C38.4 13.4108 38.4753 13.8978 38.4753 14.2724C38.4753 14.7968 38.3247 15.3213 37.9483 15.7708C37.6095 16.1454 36.9695 16.5574 35.8777 16.5574C34.9742 16.5574 34.3718 16.2952 33.8824 16.0705L33.6942 15.9955L34.3342 14.2349L34.56 14.4222C34.7859 14.6095 35.2377 14.8717 35.7647 14.8717C36.0659 14.8717 36.1789 14.7968 36.2165 14.7594C36.3295 14.6844 36.3295 14.5721 36.3295 14.4597C36.3295 14.3847 36.3295 14.3098 36.2542 14.2349C36.1789 14.16 36.0659 14.1225 35.84 14.0851L35.313 13.9727C35.0118 13.9727 34.6353 13.8603 34.3342 13.5232C34.033 13.186 33.8824 12.8114 33.8824 12.3619C33.8824 11.7625 34.0706 11.2755 34.4471 10.8635C34.8989 10.3765 35.5765 10.0394 36.48 10.0394C36.9318 10.0394 37.5718 10.1143 38.2871 10.6013L37.7224 12.1746ZM40.0942 16.4825V10.1892H42.9177C43.8589 10.1892 44.3859 10.6013 44.6495 10.8635C45.1389 11.3879 45.2518 12.0247 45.2518 12.5117C45.2518 13.0362 45.1389 13.6355 44.6871 14.0851C44.2353 14.5346 43.7083 14.6095 43.2565 14.6095H42.1647V16.4825H40.0942ZM42.1647 12.9987H42.5412C42.6542 12.9987 42.88 12.9987 43.0306 12.8114C43.1059 12.7365 43.1812 12.6241 43.1812 12.4368C43.1812 12.2495 43.1059 12.0997 43.0306 12.0622C42.9177 11.9873 42.7671 11.9124 42.6165 11.9124H42.24V12.9987H42.1647ZM46.6447 16.4825V10.1892H50.5977V11.9124H48.753V12.5117H50.4095V14.16H48.753V14.7594H50.6353V16.4825H46.6447ZM54.0989 15.6959L53.9483 16.4825H51.6895L53.7224 10.1892H56.0942L58.2024 16.4825H55.9436L55.7553 15.6959H54.0989ZM54.9647 12.287H54.8895C54.8895 12.5492 54.8518 12.774 54.7765 12.9987L54.4753 14.1974H55.3412L55.0777 12.9987C55.0024 12.7365 54.9647 12.5117 54.9647 12.287ZM59.4447 16.4825V10.1892H62.1177C62.72 10.1892 63.3977 10.2641 63.9247 10.826C64.2259 11.1632 64.4895 11.6127 64.4895 12.3619C64.4895 12.9238 64.3389 13.2609 64.1506 13.4857C63.9624 13.7105 63.6989 13.8978 63.3224 13.9727V14.0476C63.4353 14.1225 63.5483 14.1974 63.6236 14.3473L64.9412 16.4825H62.4942L61.6659 14.647C61.6283 14.5721 61.6283 14.5346 61.5906 14.4597L61.553 14.4971V16.4825H59.4447ZM61.5153 12.9613H61.7789C61.8918 12.9613 62.08 12.9238 62.2306 12.8114C62.3059 12.7365 62.3812 12.6241 62.3812 12.4368C62.3812 12.287 62.3436 12.1371 62.2683 12.0622C62.193 11.9873 62.08 11.8749 61.8918 11.8749H61.5153V12.9613ZM66.3718 16.4825V10.1892H70.3247V11.9124H68.5177V12.5117H70.1742V14.16H68.5177V14.7594H70.4V16.4825H66.3718Z" fill="white"/>
<path d="M7.79297 27.7956C7.19062 28.0203 6.47532 28.0578 6.17415 28.0578C5.34591 28.0578 4.44238 27.7581 3.80238 27.1213C3.20003 26.5219 2.86121 25.6603 2.86121 24.7613C2.86121 23.7873 3.23768 22.9257 3.80238 22.3264C4.25415 21.8768 5.00709 21.3524 6.21179 21.3524C6.70121 21.3524 7.22826 21.4273 7.75532 21.6146L7.83062 24.0495C7.56709 23.7873 7.07768 23.4127 6.47532 23.4127C6.09885 23.4127 5.76003 23.5625 5.53415 23.7873C5.30826 24.0121 5.19532 24.3492 5.19532 24.6864C5.19532 25.0235 5.30826 25.3606 5.57179 25.5854C5.76003 25.7727 6.06121 25.96 6.51297 25.96C7.15297 25.96 7.60474 25.5854 7.79297 25.3606V27.7956ZM14.6824 27.9079V21.5397H19.0118V23.3003H17.0165V23.8997H18.8236V25.5854H17.0165V26.1848H19.0871V27.9454H14.6824V27.9079ZM25.9012 27.9079V21.5397H28.1224L29.6283 23.9371C29.8541 24.3118 30.0047 24.574 30.2306 25.061H30.3059C30.193 24.6489 30.1177 24.0121 30.1177 23.5625V21.5397H32.3389V27.9079H30.1177L28.5365 25.3981C28.3859 25.1733 28.2353 24.8362 28.0847 24.574H28.0094C28.0847 24.9111 28.16 25.473 28.16 25.7352V27.9079H25.9012ZM40.1318 27.9079V23.5251L38.8141 23.6V21.5397H43.7083V23.6L42.3906 23.5251V27.8705H40.1318V27.9079ZM50.2589 27.9079V21.5397H54.5883V23.3003H52.593V23.8997H54.4V25.5854H52.593V26.1848H54.6636V27.9454H50.2589V27.9079ZM61.4777 27.9079V21.5397H64.3765C65.0541 21.5397 65.7318 21.6146 66.3341 22.214C66.673 22.5511 66.9365 23.0381 66.9365 23.7873C66.9365 24.3492 66.7483 24.6864 66.5977 24.9111C66.4094 25.1359 66.0706 25.3232 65.7318 25.4356V25.5105C65.8447 25.5854 65.9953 25.6603 66.0706 25.8102L67.5012 27.9454H64.8283L63.9247 26.0724C63.8871 25.9975 63.8494 25.96 63.8494 25.8851L63.8118 25.9225V27.9829H61.4777V27.9079ZM63.7365 24.3492H64C64.1506 24.3492 64.3389 24.3118 64.4894 24.1994C64.5647 24.1244 64.64 24.0121 64.64 23.8248C64.64 23.6749 64.6024 23.5251 64.5271 23.4502C64.4518 23.3752 64.3388 23.2629 64.1506 23.2629H63.7365V24.3492Z" fill="black"/>
<path d="M8.16944 27.421C7.56708 27.6457 6.85179 27.6832 6.55061 27.6832C5.72238 27.6832 4.81885 27.3835 4.17885 26.7467C3.57649 26.1473 3.23767 25.2857 3.23767 24.3867C3.23767 23.4127 3.61414 22.5511 4.17885 21.9518C4.63061 21.5022 5.38355 20.9778 6.58826 20.9778C7.07767 20.9778 7.60473 21.0527 8.13179 21.24L8.20708 23.6749C7.94355 23.4127 7.45414 23.0381 6.85179 23.0381C6.47532 23.0381 6.13649 23.1879 5.91061 23.4127C5.68473 23.6375 5.57179 23.9746 5.57179 24.3118C5.57179 24.6489 5.68473 24.986 5.94826 25.2108C6.13649 25.3981 6.43767 25.5854 6.88944 25.5854C7.52944 25.5854 7.9812 25.2108 8.16944 24.986V27.421ZM15.0588 27.5333V21.1651H19.3883V22.9257H17.393V23.5251H19.2V25.2108H17.393V25.8102H19.4636V27.5708H15.0588V27.5333ZM26.2777 27.5333V21.1651H28.4988L30.0047 23.5625C30.2306 23.9371 30.3812 24.1994 30.6071 24.6864H30.6824C30.5694 24.2743 30.4941 23.6375 30.4941 23.1879V21.1651H32.7153V27.5333H30.4941L28.913 25.0235C28.7624 24.7987 28.6118 24.4616 28.4612 24.1994H28.3859C28.4612 24.5365 28.5365 25.0984 28.5365 25.3606V27.5333H26.2777ZM40.5083 27.5333V23.1505L39.1906 23.2254V21.1651H44.0847V23.2254L42.7671 23.1505V27.4959H40.5083V27.5333ZM50.6353 27.5333V21.1651H54.9647V22.9257H52.9694V23.5251H54.7765V25.2108H52.9694V25.8102H55.04V27.5708H50.6353V27.5333ZM61.8541 27.5333V21.1651H64.753C65.4306 21.1651 66.1083 21.24 66.7106 21.8394C67.0494 22.1765 67.313 22.6635 67.313 23.4127C67.313 23.9746 67.1247 24.3118 66.9741 24.5365C66.7859 24.7613 66.4471 24.9486 66.1083 25.061V25.1359C66.2212 25.2108 66.3718 25.2857 66.4471 25.4356L67.8777 27.5708H65.2047L64.3012 25.6978C64.2636 25.6229 64.2259 25.5854 64.2259 25.5105L64.1883 25.5479V27.6083H61.8541V27.5333ZM64.113 23.9746H64.3765C64.5271 23.9746 64.7153 23.9371 64.8659 23.8248C64.9412 23.7498 65.0165 23.6375 65.0165 23.4502C65.0165 23.3003 64.9788 23.1505 64.9035 23.0756C64.8283 23.0006 64.7153 22.8883 64.5271 22.8883H64.113V23.9746Z" fill="white"/>
</g>
<defs>
<clipPath id="clip0_109_495">
<rect width="80" height="59" fill="white"/>
</clipPath>
</defs>
</svg>
